@startuml

class File {
- name : String

+ File(name : String)
+ getName() : String
+ setName(name : String)
+ toString() : String
}

class Folder {
- name : String
- subfolders : ArrayList<Folder>
- files : ArrayList<File>

+ Folder()
+ getName() : String
+ setName(name : String)
+ removeSubfolder(subFolderName : String)
+ addSubfolder(subFolderName : String)
+ getSubfolder(subFolderName : String) : Folder
+ removeFile(file : File) : boolean
+ addFile(fileName : String)
+ toString() : String
+ printFolderContents()
}


Folder "1" *-- "*" Folder : Contains sub-folders
Folder "1" *-- "*" File : Contain Files

@enduml
